#!OML:ASF X:\für Bonn\!DataBase\2005_08_12_Daniel\c3d\Daniel.ASF
:FULLY-SPECIFIED
:DEGREES
1094
root 21.962 17.2576 33.0731 1.76036 229.843 -3.01026
lowerback 9.07184 -0.0359924 -0.505493
upperback 3.06196 -0.331128 -2.38734
thorax -1.92368 -0.234863 -2.14565
lowerneck 3.28173 -5.08147 -9.75038
upperneck 10.2906 -7.60841 4.37952
head 3.41641 -4.15804 3.01288
rclavicle -6.59965e-014 -1.74931e-014
rhumerus -29.9118 -1.75068 -90.9676
rradius 26.8054
rwrist 12.3124
rhand -18.5 17.937
rfingers 7.12502
rthumb 7.7878 -11.8996
lclavicle -6.59965e-014 -1.74931e-014
lhumerus -68.3228 55.6953 35.3176
lradius 14.1656
lwrist -49.6323
lhand -8.04118 -5.97815
lfingers 7.12502
lthumb 17.8692 23.2209
rfemur -1.12857 5.37312 21.5261
rtibia 29.2239
rfoot -44.0814 -29.6295
rtoes -4.51909
lfemur -12.7744 -2.54339 -24.3912
ltibia 41.0655
lfoot -28.8687 3.27183
ltoes -8.21395
1095
root 21.9116 17.2525 33.0731 1.87403 230.027 -3.15014
lowerback 9.05073 -0.0442679 -0.481806
upperback 3.06243 -0.344236 -2.48703
thorax -1.91263 -0.241907 -2.26101
lowerneck 3.3768 -5.12589 -9.82209
upperneck 10.5058 -7.72123 4.70115
head 3.14726 -4.19211 2.83999
rclavicle 1.89839e-014 3.06128e-014
rhumerus -29.8414 -1.91552 -91.2154
rradius 26.8307
rwrist 12.2379
rhand -18.466 17.9198
rfingers 7.12502
rthumb 7.8206 -11.9155
lclavicle 1.89839e-014 3.06128e-014
lhumerus -70.2067 56.3383 32.7167
lradius 14.0152
lwrist -52.5666
lhand -8.56498 -6.27808
lfingers 7.12502
lthumb 17.3652 22.9662
rfemur -1.35168 3.60472 20.8858
rtibia 29.6262
rfoot -42.6908 -28.7281
rtoes -5.73742
lfemur -12.5306 -2.54455 -24.5951
ltibia 40.8812
lfoot -28.996 3.0995
ltoes -8.05845
1096
root 21.8612 17.247 33.0715 2.03904 230.181 -3.42189
lowerback 9.07948 -0.0646306 -0.58763
upperback 3.07077 -0.386629 -2.56923
thorax -1.92136 -0.264529 -2.28209
lowerneck 3.44138 -5.14217 -10.0972
upperneck 10.5208 -7.77096 4.88863
head 3.16267 -4.22305 2.94029
rclavicle -5.73494e-014 -8.74653e-015
rhumerus -29.8168 -1.92108 -91.4311
rradius 26.9166
rwrist 12.0881
rhand -18.3437 17.7607
rfingers 7.12502
rthumb 7.93861 -12.0703
lclavicle -5.73494e-014 -8.74653e-015
lhumerus -72.2751 56.9835 30.0229
lradius 13.9692
lwrist -55.6239
lhand -8.99712 -6.495
lfingers 7.12502
lthumb 16.9492 22.7855
rfemur -1.58231 1.72467 20.1182
rtibia 30.1528
rfoot -41.2164 -27.7206
rtoes -6.9189
lfemur -12.233 -2.52343 -24.8884
ltibia 40.6903
lfoot -29.135 2.96347
ltoes -8.19522
1097
root 21.8127 17.239 33.0681 2.16246 230.34 -3.63821
lowerback 9.10482 -0.0947943 -0.684368
upperback 3.09816 -0.440704 -2.63209
thorax -1.9088 -0.293086 -2.287
lowerneck 3.3646 -5.16336 -10.398
upperneck 10.6219 -7.81444 5.06221
head 3.22725 -4.25139 3.03512
rclavicle -9.0944e-014 -2.18663e-014
rhumerus -29.7832 -1.8603 -91.6364
rradius 26.9349
rwrist 11.9155
rhand -18.3294 17.8411
rfingers 7.12502
rthumb 7.95243 -11.9893
lclavicle -9.0944e-014 -2.18663e-014
lhumerus -74.0488 57.5511 27.6373
lradius 13.9399
lwrist -58.6141
lhand -9.30068 -6.52384
lfingers 7.12502
lthumb 16.657 22.7814
rfemur -1.88607 0.034173 19.4345
rtibia 30.8223
rfoot -39.8917 -26.8238
rtoes -8.34195
lfemur -11.9256 -2.48128 -25.1272
ltibia 40.4839
lfoot -29.2388 2.80004
ltoes -8.24102
1098
root 21.7633 17.2323 33.0641 2.21987 230.477 -3.85943
lowerback 9.24339 -0.118552 -0.7879
upperback 3.10883 -0.490831 -2.69631
thorax -1.97574 -0.320205 -2.28968
lowerneck 3.33913 -5.18168 -10.6657
upperneck 10.6984 -7.85658 5.20993
head 3.27398 -4.27932 3.1189
rclavicle 1.69961e-014 3.29983e-014
rhumerus -29.7982 -1.90173 -91.81
rradius 26.8704
rwrist 11.8451
rhand -18.3533 17.9548
rfingers 7.12502
rthumb 7.92931 -11.8765
lclavicle 1.69961e-014 3.29983e-014
lhumerus -75.1342 57.8292 26.1124
lradius 14.0015
lwrist -60.9831
lhand -9.5764 -6.48217
lfingers 7.12502
lthumb 16.3915 22.8452
rfemur -2.1699 -1.46765 18.7916
rtibia 31.6096
rfoot -38.7056 -26.0665
rtoes -9.59015
lfemur -11.5291 -2.43489 -25.3741
ltibia 40.2889
lfoot -29.4354 2.62788
ltoes -8.30567
1099
root 21.7148 17.2245 33.0615 2.35836 230.638 -4.15527
lowerback 9.35073 -0.153449 -0.931374
upperback 3.13779 -0.559593 -2.76405
thorax -2.00679 -0.356959 -2.2714
lowerneck 3.23523 -5.2051 -10.8873
upperneck 10.8363 -7.89206 5.27713
head 3.34697 -4.30476 3.16785
rclavicle -1.3418e-014 9.54166e-015
rhumerus -29.7328 -2.07704 -91.9105
rradius 26.7063
rwrist 11.9614
rhand -18.4335 18.1058
rfingers 7.12502
rthumb 7.85192 -11.7284
lclavicle -1.3418e-014 9.54166e-015
lhumerus -76.2328 58.1847 24.498
lradius 14.0234
lwrist -63.331
lhand -9.72197 -6.50422
lfingers 7.12502
lthumb 16.2514 22.8347
rfemur -2.56051 -2.86334 18.1044
rtibia 32.5499
rfoot -37.5827 -25.3575
rtoes -10.8813
lfemur -11.1758 -2.35225 -25.6607
ltibia 40.0889
lfoot -29.5403 2.41723
ltoes -8.35684
1100
root 21.6655 17.2141 33.058 2.41674 230.783 -4.402
lowerback 9.51792 -0.205442 -1.04751
upperback 3.16905 -0.650852 -2.82375
thorax -2.06909 -0.405129 -2.25733
lowerneck 3.10446 -5.20653 -11.1833
upperneck 10.958 -7.90129 5.43741
head 3.42363 -4.31597 3.25745
rclavicle -9.0447e-015 -4.29375e-014
rhumerus -29.7024 -2.05685 -92.0488
rradius 26.5374
rwrist 11.9202
rhand -18.4616 18.397
rfingers 7.12502
rthumb 7.82482 -11.4382
lclavicle -9.0447e-015 -4.29375e-014
lhumerus -76.4491 58.3342 23.8849
lradius 14.0097
lwrist -64.8437
lhand -9.99205 -6.28692
lfingers 7.12502
lthumb 15.9913 23.073
rfemur -2.96293 -4.15121 17.4629
rtibia 33.6159
rfoot -36.6391 -24.5797
rtoes -11.485
lfemur -10.7834 -2.27124 -25.9118
ltibia 39.9312
lfoot -29.7167 2.19519
ltoes -8.42466
1101
root 21.6176 17.2001 33.0526 2.55394 230.95 -4.75781
lowerback 9.69 -0.263716 -1.2592
upperback 3.18573 -0.760478 -2.88336
thorax -2.14846 -0.46253 -2.18679
lowerneck 3.02231 -5.21284 -11.4892
upperneck 11.1285 -7.92604 5.57134
head 3.50807 -4.33948 3.34102
rclavicle -6.94752e-014 -1.94809e-014
rhumerus -29.7662 -2.11976 -92.139
rradius 26.3783
rwrist 12.0708
rhand -18.6354 18.6839
rfingers 7.12502
rthumb 7.65711 -11.1575
lclavicle -6.94752e-014 -1.94809e-014
lhumerus -77.0606 58.5355 22.8326
lradius 13.9743
lwrist -66.4268
lhand -10.1125 -6.19106
lfingers 7.12502
lthumb 15.8753 23.1782
rfemur -3.43732 -5.29264 16.7843
rtibia 34.8523
rfoot -35.8028 -23.8673
rtoes -12.087
lfemur -10.3942 -2.21219 -26.2362
ltibia 39.7923
lfoot -29.8664 2.01596
ltoes -8.36849
1102
root 21.5682 17.184 33.048 2.60042 231.092 -5.03838
lowerback 9.88867 -0.312313 -1.3758
upperback 3.23092 -0.852031 -2.96783
thorax -2.21339 -0.511602 -2.19731
lowerneck 2.90118 -5.23114 -11.7122
upperneck 11.2833 -7.9592 5.70916
head 3.59168 -4.36197 3.41149
rclavicle -8.46823e-014 4.41302e-014
rhumerus -29.7509 -2.3978 -92.2083
rradius 26.113
rwrist 12.3981
rhand -18.7523 19.0017
rfingers 7.12502
rthumb 7.54422 -10.8437
lclavicle -8.46823e-014 4.41302e-014
lhumerus -77.2902 58.6982 22.1468
lradius 13.9312
lwrist -67.5292
lhand -10.3104 -6.08207
lfingers 7.12502
lthumb 15.6847 23.3022
rfemur -3.93718 -6.26922 16.1566
rtibia 36.2038
rfoot -35.1495 -23.0838
rtoes -12.0906
lfemur -9.98752 -2.19309 -26.5216
ltibia 39.7068
lfoot -30.0153 1.85601
ltoes -8.19775
1103
root 21.5218 17.1649 33.0418 2.66962 231.228 -5.3687
lowerback 10.1292 -0.361733 -1.58624
upperback 3.27011 -0.954995 -3.0179
thorax -2.30576 -0.566356 -2.11708
lowerneck 2.82863 -5.23052 -11.9706
upperneck 11.3931 -7.96926 5.83467
head 3.65293 -4.37486 3.48685
rclavicle -1.73937e-014 -4.77083e-015
rhumerus -29.8242 -2.4328 -92.2566
rradius 25.9236
rwrist 12.5937
rhand -18.8806 19.2744
rfingers 7.12502
rthumb 7.42045 -10.5755
lclavicle -1.73937e-014 -4.77083e-015
lhumerus -77.6449 58.9031 21.3176
lradius 13.7893
lwrist -68.584
lhand -10.4996 -6.02264
lfingers 7.12502
lthumb 15.5025 23.3759
rfemur -4.52105 -6.99005 15.5671
rtibia 37.7042
rfoot -34.4577 -22.4908
rtoes -12.0201
lfemur -9.57073 -2.09865 -26.8129
ltibia 39.6125
lfoot -30.1326 1.64929
ltoes -7.95122
1104
root 21.4722 17.1476 33.0346 2.72576 231.398 -5.65534
lowerback 10.3402 -0.446267 -1.76262
upperback 3.28859 -1.09927 -3.05783
thorax -2.40401 -0.640544 -2.04005
lowerneck 2.82855 -5.21508 -12.2204
upperneck 11.5038 -7.96781 5.92526
head 3.70007 -4.38553 3.55301
rclavicle -6.32135e-014 4.85035e-014
rhumerus -29.9218 -2.46635 -92.328
rradius 25.7145
rwrist 12.7428
rhand -18.9608 19.4725
rfingers 7.12502
rthumb 7.34303 -10.3801
lclavicle -6.32135e-014 4.85035e-014
lhumerus -77.9671 59.0462 20.5426
lradius 13.6585
lwrist -69.3978
lhand -10.6941 -5.96296
lfingers 7.12502
lthumb 15.3152 23.45
rfemur -5.17002 -7.50824 15.0509
rtibia 39.3137
rfoot -33.7714 -21.922
rtoes -11.9655
lfemur -9.15336 -2.09721 -27.0866
ltibia 39.5073
lfoot -30.2379 1.48716
ltoes -7.71004
1105
root 21.4222 17.1346 33.0264 2.78548 231.515 -5.98902
lowerback 10.5709 -0.502673 -1.93995
upperback 3.35099 -1.21242 -3.13832
thorax -2.46695 -0.701135 -2.0079
lowerneck 2.7847 -5.21285 -12.367
upperneck 11.57 -7.97627 6.0505
head 3.73849 -4.39251 3.61241
rclavicle 1.17283e-013 -2.8625e-014
rhumerus -30.0054 -2.50808 -92.4172
rradius 25.5526
rwrist 12.9904
rhand -19.0819 19.5821
rfingers 7.12502
rthumb 7.22612 -10.2746
lclavicle 1.17283e-013 -2.8625e-014
lhumerus -77.8922 59.2166 20.1198
lradius 13.487
lwrist -69.9654
lhand -10.8345 -5.78395
lfingers 7.12502
lthumb 15.1799 23.6392
rfemur -5.86297 -7.72994 14.5372
rtibia 41.0338
rfoot -33.1546 -21.3153
rtoes -11.5522
lfemur -8.67877 -2.04388 -27.3899
ltibia 39.3582
lfoot -30.3753 1.3309
ltoes -7.51881
1106
root 21.3717 17.1236 33.0154 2.90003 231.656 -6.3237
lowerback 10.7557 -0.585185 -2.19112
upperback 3.38087 -1.36173 -3.15565
thorax -2.53551 -0.777856 -1.86363
lowerneck 2.8149 -5.18786 -12.5798
upperneck 11.6074 -7.95885 6.12333
head 3.75482 -4.39279 3.66982
rclavicle 3.08116e-015 -5.56597e-015
rhumerus -30.1083 -2.49236 -92.4303
rradius 25.3452
rwrist 13.1614
rhand -19.1059 19.5371
rfingers 7.12502
rthumb 7.20298 -10.3203
lclavicle 3.08116e-015 -5.56597e-015
lhumerus -78.8735 59.5546 18.6018
lradius 13.345
lwrist -70.9078
lhand -10.9769 -5.83971
lfingers 7.12502
lthumb 15.0427 23.5938
rfemur -6.66228 -7.8059 14.0731
rtibia 42.8223
rfoot -32.5807 -20.6412
rtoes -11.1918
lfemur -8.23573 -2.03423 -27.687
ltibia 39.1911
lfoot -30.437 1.18203
ltoes -7.11765
1107
root 21.321 17.1107 33.001 2.94892 231.769 -6.61283
lowerback 10.949 -0.64232 -2.38861
upperback 3.42149 -1.4773 -3.23001
thorax -2.59861 -0.838796 -1.81271
lowerneck 2.92322 -5.18441 -12.5252
upperneck 11.5848 -7.97092 6.12869
head 3.72913 -4.39906 3.66603
rclavicle 3.12092e-014 2.78299e-015
rhumerus -30.213 -2.58519 -92.5305
rradius 25.1036
rwrist 13.3603
rhand -19.1447 19.4236
rfingers 7.12502
rthumb 7.16544 -10.4351
lclavicle 3.12092e-014 2.78299e-015
lhumerus -79.3563 59.8251 17.5142
lradius 13.1913
lwrist -71.5841
lhand -11.1513 -5.82652
lfingers 7.12502
lthumb 14.8747 23.6195
rfemur -7.46126 -7.72362 13.6681
rtibia 44.6509
rfoot -31.9377 -19.8432
rtoes -11.0533
lfemur -7.7221 -2.00143 -27.9455
ltibia 38.9897
lfoot -30.5383 1.05055
ltoes -6.90371
1108
root 21.2699 17.0971 32.9874 3.03776 231.937 -6.90008
lowerback 11.1186 -0.747476 -2.61444
upperback 3.4415 -1.65352 -3.23506
thorax -2.66753 -0.927967 -1.66541
lowerneck 2.99927 -5.14304 -12.6008
upperneck 11.6428 -7.93368 6.11926
head 3.73352 -4.38953 3.67856
rclavicle 2.34566e-014 3.18055e-015
rhumerus -30.3912 -2.49889 -92.5361
rradius 24.9403
rwrist 13.5259
rhand -19.1218 19.1564
rfingers 7.12502
rthumb 7.18753 -10.7016
lclavicle 2.34566e-014 3.18055e-015
lhumerus -80.0238 60.1052 16.3898
lradius 13.0813
lwrist -72.0227
lhand -11.2941 -5.88793
lfingers 7.12502
lthumb 14.7372 23.5682
rfemur -8.3005 -7.5617 13.2873
rtibia 46.4707
rfoot -31.3423 -18.9811
rtoes -10.9329
lfemur -7.25926 -2.07095 -28.2198
ltibia 38.7686
lfoot -30.572 0.991852
ltoes -6.6488
